<?xml version="1.0" encoding="UTF-8"?>
<svgviewBox="0 0 50 50" version="1.1" xmlns="http://www.w3.org/2000/svg" xmlns:xlink="http://www.w3.org/1999/xlink">
    <!-- Generator: Sketch 60.1 (88133) - https://sketch.com -->
    <title>language</title>
    <desc>Created with Sketch.</desc>
    <defs>
        <polygon id="path-1" points="0.003515625 0 30 0 30 30 0.003515625 30"></polygon>
    </defs>
    <g id="language" stroke="none" stroke-width="1" fill="none" fill-rule="evenodd">
        <g id="003-translate" transform="translate(10.000000, 10.000000)">
            <g id="Group-4">
                <mask id="mask-2" fill="white">
                    <use xlink:href="#path-1"></use>
                </mask>
                <g id="Clip-2"></g>
                <polygon id="E" fill="#666666" fill-rule="nonzero" mask="url(#mask-2)" points="23.90625 25.5 23.90625 24.0527344 19.1074219 24.0527344 19.1074219 21.7148437 23.4199219 21.7148437 23.4199219 20.2675781 19.1074219 20.2675781 19.1074219 18.3632812 23.7421875 18.3632812 23.7421875 16.9101562 17.3730469 16.9101562 17.3730469 25.5"></polygon>
                <path d="M10.374,13.194 L10.374,11.694 L8.394,11.694 L8.394,11.694 C7.878,11.694 7.302,11.286 7.302,10.638 C7.302,9.99 7.686,9.582 8.43,9.582 L11.466,9.582 L11.466,8.07 L10.122,8.07 C9.366,8.07 8.934,7.806 8.934,7.206 C8.934,6.63 9.462,6.546 9.618,6.546 C9.822,6.546 10.194,6.57 10.53,7.05 L11.418,5.91 C10.866,5.238 10.206,4.974 9.474,4.974 C8.466,4.974 7.254,5.598 7.254,7.014 C7.254,7.53 7.422,7.89 7.566,8.118 C6.342,8.382 5.67,9.546 5.67,10.686 C5.67,12.066 6.846,13.194 8.31,13.194 L10.374,13.194 Z" id="ع" fill="#666666" fill-rule="nonzero" mask="url(#mask-2)"></path>
                <path d="M26.7677344,12.2383008 L17.7614648,12.2383008 L17.7614648,8.39173828 L20.6883984,6.30111328 C20.9193164,6.13611328 21.0564258,5.86992188 21.0564258,5.58609375 C21.0564258,5.30203125 20.9193164,5.03583984 20.6883984,4.87083984 L17.7261914,2.75507812 C17.4948047,1.19818359 16.1491992,0 14.5291992,0 L3.2325,0 C1.44996094,0 0,1.44996094 0,3.2325 L0,14.5294336 C0,16.3117383 1.44996094,17.7616992 3.2325,17.7616992 L12.2385352,17.7616992 L12.2385352,21.6082617 L9.31160156,23.6988867 C9.08068359,23.8638867 8.94357422,24.1303125 8.94357422,24.4141406 C8.94357422,24.6979688 9.08068359,24.9643945 9.31160156,25.1291602 L12.2738086,27.2449219 C12.5051953,28.8018164 13.8508008,30 15.4708008,30 L26.7677344,30 C28.5500391,30 30,28.5498047 30,26.7675 L30,15.4708008 C30,13.6882617 28.5500391,12.2383008 26.7677344,12.2383008 Z M3.2325,16.0038867 C2.41927734,16.0038867 1.7578125,15.3424219 1.7578125,14.5291992 L1.7578125,3.23226562 C1.7578125,2.41927734 2.41927734,1.7578125 3.2325,1.7578125 L14.5291992,1.7578125 C15.3421875,1.7578125 16.0036523,2.41927734 16.0036523,3.23226562 C16.0036523,3.51632813 16.1407617,3.78275391 16.3716797,3.94751953 L18.665332,5.58585938 L16.3716797,7.22419922 C16.1407617,7.38919922 16.0036523,7.655625 16.0036523,7.93945313 L16.0036523,12.2383008 L15.4708008,12.2383008 C13.6884961,12.2383008 12.2385352,13.6882617 12.2385352,15.4705664 L12.2385352,16.0038867 L3.2325,16.0038867 Z M28.2421875,26.7675 C28.2421875,27.5807227 27.5807227,28.2421875 26.7677344,28.2421875 L15.4708008,28.2421875 C14.6578125,28.2421875 13.9963477,27.5807227 13.9963477,26.7675 C13.9963477,26.4836719 13.8592383,26.2172461 13.6283203,26.0524805 L11.334668,24.4141406 L13.6283203,22.7758008 C13.8592383,22.6108008 13.9963477,22.344375 13.9963477,22.0605469 L13.9963477,15.4708008 C13.9963477,14.6575781 14.6578125,13.9961133 15.4708008,13.9961133 L26.7677344,13.9961133 C27.5807227,13.9961133 28.2421875,14.6575781 28.2421875,15.4708008 L28.2421875,26.7675 Z" id="Fill-3" fill="#666666" mask="url(#mask-2)"></path>
            </g>
        </g>
    </g>
</svg>